<svg id="visual" viewBox="0 0 900 600" width="900" height="600" xmlns="http://www.w3.org/2000/svg" xmlns:xlink="http://www.w3.org/1999/xlink" version="1.1"><path d="M0 61L82 61L164 85L245 91L327 61L409 43L491 85L573 73L655 103L736 49L818 43L900 55L900 0L818 0L736 0L655 0L573 0L491 0L409 0L327 0L245 0L164 0L82 0L0 0Z" fill="#181636"></path><path d="M0 187L82 133L164 235L245 199L327 295L409 145L491 265L573 187L655 187L736 223L818 229L900 217L900 53L818 41L736 47L655 101L573 71L491 83L409 41L327 59L245 89L164 83L82 59L0 59Z" fill="#133558"></path><path d="M0 289L82 241L164 337L245 313L327 361L409 211L491 373L573 301L655 283L736 325L818 331L900 289L900 215L818 227L736 221L655 185L573 185L491 263L409 143L327 293L245 197L164 233L82 131L0 185Z" fill="#005575"></path><path d="M0 463L82 469L164 463L245 553L327 541L409 433L491 457L573 469L655 499L736 493L818 451L900 469L900 287L818 329L736 323L655 281L573 299L491 371L409 209L327 359L245 311L164 335L82 239L0 287Z" fill="#007683"></path><path d="M0 601L82 601L164 601L245 601L327 601L409 601L491 601L573 601L655 601L736 601L818 601L900 601L900 467L818 449L736 491L655 497L573 467L491 455L409 431L327 539L245 551L164 461L82 467L0 461Z" fill="#009473"></path></svg>